<?xml version="1.0" standalone="no"?>
<!DOCTYPE svg PUBLIC "-//W3C//DTD SVG 20010904//EN"
 "http://www.w3.org/TR/2001/REC-SVG-20010904/DTD/svg10.dtd">
<svg version="1.0" xmlns="http://www.w3.org/2000/svg"
 width="512.000000pt" height="512.000000pt" viewBox="0 0 512.000000 512.000000"
 preserveAspectRatio="xMidYMid meet">
<metadata>
Created by potrace 1.14, written by Peter Selinger 2001-2017
</metadata>
<g transform="translate(0.000000,512.000000) scale(0.100000,-0.100000)"
fill="#000000" stroke="none">
<path d="M3335 5111 c-75 -19 -125 -61 -419 -354 -425 -423 -483 -477 -691
-643 -308 -247 -723 -497 -1070 -645 -127 -54 -274 -130 -355 -184 -41 -27
-77 -52 -80 -55 -3 -3 -37 -31 -76 -63 -342 -275 -574 -703 -631 -1162 -15
-119 -8 -419 12 -515 3 -14 10 -50 16 -80 17 -84 82 -277 129 -376 89 -190
197 -342 360 -504 153 -153 293 -256 475 -347 128 -65 361 -139 490 -157 22
-3 69 -10 105 -15 72 -10 360 -7 430 4 106 16 281 59 367 90 252 92 464 226
654 415 192 190 292 342 414 625 206 481 516 957 879 1349 50 54 232 240 404
413 358 358 366 369 366 503 0 60 -5 86 -26 132 -57 124 -181 197 -316 186
-117 -10 -122 -14 -577 -468 -453 -452 -441 -441 -531 -427 -103 17 -170 149
-122 241 8 15 354 368 769 784 606 607 760 767 779 807 35 73 35 200 0 270
-61 122 -174 188 -314 181 -112 -5 -131 -20 -468 -355 -169 -168 -312 -318
-317 -332 -6 -19 -5 -35 4 -52 12 -23 10 -28 -35 -71 -34 -33 -50 -42 -58 -34
-6 6 -25 11 -42 10 -27 -1 -51 -20 -150 -119 -69 -69 -132 -123 -152 -130
-108 -39 -214 24 -232 137 -10 69 11 101 191 283 148 150 173 179 191 229 57
154 -11 328 -157 403 -54 27 -159 40 -216 26z m-456 -1465 c111 -58 121 -213
20 -289 -69 -51 -177 -34 -233 36 -28 35 -31 46 -30 103 0 56 4 69 31 101 51
63 143 84 212 49z"/>
<path d="M1619 4518 c-97 -49 -151 -136 -151 -244 -1 -145 101 -257 245 -271
146 -13 269 80 295 223 11 64 7 97 -23 162 -46 101 -129 154 -243 158 -53 1
-74 -4 -123 -28z"/>
<path d="M685 4386 c-106 -37 -181 -100 -227 -194 -31 -62 -33 -74 -33 -167 0
-89 3 -106 28 -157 56 -113 157 -188 285 -210 154 -26 315 57 386 198 45 89
53 159 31 264 -19 92 -106 197 -203 243 -75 35 -200 46 -267 23z"/>
<path d="M4298 1707 c-26 -8 -55 -20 -65 -27 -96 -73 -128 -133 -128 -240 1
-57 6 -85 22 -115 32 -60 79 -104 142 -132 139 -62 307 10 362 156 49 132 -18
293 -146 347 -50 21 -134 25 -187 11z"/>
</g>
</svg>
